<?xml version="1.0" encoding="utf-8"?>
<!-- Generator: Adobe Illustrator 15.1.0, SVG Export Plug-In . SVG Version: 6.00 Build 0)  -->
<!DOCTYPE svg PUBLIC "-//W3C//DTD SVG 1.1//EN" "http://www.w3.org/Graphics/SVG/1.1/DTD/svg11.dtd">
<svg version="1.1" id="Слой_1" xmlns="http://www.w3.org/2000/svg" xmlns:xlink="http://www.w3.org/1999/xlink" x="0px" y="0px"
	 width="23px" height="52.004px" viewBox="-145 209.5 23 52.004" enable-background="new -145 209.5 23 52.004"
	 xml:space="preserve">
<g>
	<path fill="#7E858B" d="M-127.774,242.945c0,0,5.898,4.926,1.555,11.72C-126.219,254.665-131.589,249.161-127.774,242.945z"/>
	<path fill="#7E858B" d="M-127.208,255.333c1.52,1.497,2.618,3.444,3.067,5.69l-1.662,0.332c-0.424-2.114-1.529-3.915-3.042-5.229
		c-2.51,0.467-6.997,0.613-10.146-3.192C-138.99,252.935-132.149,249.525-127.208,255.333z"/>
	<path fill="#7E858B" d="M-133.043,250.16c0,0-6.47,2.479-10.468-2.348C-143.511,247.811-137.358,244.748-133.043,250.16z"/>
	<path fill="#7E858B" d="M-136.193,244.776c0,0-6.905-0.397-8.303-6.438C-144.497,238.337-137.608,238.071-136.193,244.776z"/>
	<path fill="#7E858B" d="M-137.688,237.071c0,0-6.099-0.997-6.718-6.521C-144.406,230.549-138.26,230.956-137.688,237.071z"/>
	<path fill="#7E858B" d="M-141.047,221.787c0,0,5.085,3.237,2.43,8.893C-138.617,230.679-143.358,226.94-141.047,221.787z"/>
	<path fill="#7E858B" d="M-137.805,216.039c0,0,4.174,2.658,1.993,7.3C-135.812,223.338-139.7,220.271-137.805,216.039z"/>
	<path fill="#7E858B" d="M-134.468,216.686c0,0-0.679-3.885,2.809-5.598C-131.66,211.087-130.58,214.856-134.468,216.686z"/>
	<path fill="#7E858B" d="M-131.122,238.309c0,0,3.792,5.687-1.721,10.566C-132.843,248.875-136.027,242.809-131.122,238.309z"/>
	<path fill="#7E858B" d="M-132.309,232.281c0,0,1.882,5.747-4.006,8.771C-136.314,241.052-137.589,235.105-132.309,232.281z"/>
	<path fill="#7E858B" d="M-138.372,233.639c0,0,0.599-5.62,6.053-6.741C-132.319,226.898-132.326,232.503-138.372,233.639z"/>
	<path fill="#7E858B" d="M-136.87,226.55c0,0,1.393-5.31,6.753-5.659C-130.116,220.891-130.941,226.262-136.87,226.55z"/>
	<path fill="#7E858B" d="M-134.377,218.945c0,0,2.187-4.386,6.88-3.789C-127.497,215.156-129.204,219.695-134.377,218.945z"/>
	<path fill="#7E858B" d="M-130.538,213.489c0,0,2.185-4.388,6.88-3.791C-123.658,209.698-125.367,214.239-130.538,213.489z"/>
</g>
</svg>
