<?xml version="1.0" encoding="utf-8"?>
<!-- Generator: Adobe Illustrator 15.1.0, SVG Export Plug-In . SVG Version: 6.00 Build 0)  -->
<!DOCTYPE svg PUBLIC "-//W3C//DTD SVG 1.1//EN" "http://www.w3.org/Graphics/SVG/1.1/DTD/svg11.dtd">
<svg version="1.1" id="Слой_1" xmlns="http://www.w3.org/2000/svg" xmlns:xlink="http://www.w3.org/1999/xlink" x="0px" y="0px"
	 width="23px" height="52.004px" viewBox="-145 209.5 23 52.004" enable-background="new -145 209.5 23 52.004"
	 xml:space="preserve">
<g>
	<path fill="#7E858B" d="M-141.936,254.665c-4.343-6.794,1.555-11.72,1.555-11.72C-136.565,249.161-141.936,254.665-141.936,254.665
		z"/>
	<path fill="#7E858B" d="M-129.165,252.933c-3.149,3.806-7.636,3.659-10.146,3.192c-1.512,1.314-2.618,3.115-3.042,5.229
		l-1.662-0.332c0.449-2.246,1.547-4.193,3.067-5.69C-136.005,249.525-129.165,252.935-129.165,252.933z"/>
	<path fill="#7E858B" d="M-124.643,247.812c-3.998,4.827-10.468,2.348-10.468,2.348
		C-130.796,244.748-124.643,247.811-124.643,247.812z"/>
	<path fill="#7E858B" d="M-123.658,238.337c-1.397,6.041-8.303,6.438-8.303,6.438C-130.546,238.071-123.657,238.337-123.658,238.337
		z"/>
	<path fill="#7E858B" d="M-123.749,230.549c-0.619,5.524-6.718,6.521-6.718,6.521C-129.894,230.956-123.749,230.549-123.749,230.549
		z"/>
	<path fill="#7E858B" d="M-129.537,230.679c-2.656-5.655,2.43-8.893,2.43-8.893C-124.796,226.94-129.537,230.679-129.537,230.679z"
		/>
	<path fill="#7E858B" d="M-132.342,223.338c-2.181-4.642,1.993-7.3,1.993-7.3C-128.454,220.271-132.342,223.338-132.342,223.338z"/>
	<path fill="#7E858B" d="M-136.495,211.088c3.488,1.713,2.809,5.598,2.809,5.598C-137.575,214.856-136.495,211.087-136.495,211.088z
		"/>
	<path fill="#7E858B" d="M-135.311,248.875c-5.513-4.88-1.721-10.566-1.721-10.566
		C-132.127,242.809-135.311,248.875-135.311,248.875z"/>
	<path fill="#7E858B" d="M-131.839,241.052c-5.888-3.024-4.006-8.771-4.006-8.771C-130.565,235.105-131.84,241.052-131.839,241.052z
		"/>
	<path fill="#7E858B" d="M-135.835,226.898c5.454,1.121,6.053,6.741,6.053,6.741C-135.829,232.503-135.835,226.898-135.835,226.898z
		"/>
	<path fill="#7E858B" d="M-138.038,220.891c5.361,0.35,6.753,5.659,6.753,5.659C-137.213,226.262-138.038,220.891-138.038,220.891z"
		/>
	<path fill="#7E858B" d="M-140.658,215.156c4.694-0.597,6.88,3.789,6.88,3.789C-138.95,219.695-140.658,215.156-140.658,215.156z"/>
	<path fill="#7E858B" d="M-144.496,209.698c4.695-0.597,6.88,3.791,6.88,3.791C-142.788,214.239-144.496,209.698-144.496,209.698z"
		/>
</g>
</svg>
