<svg id="Слой_1" data-name="Слой 1" xmlns="http://www.w3.org/2000/svg" width="187" height="60" viewBox="0 0 187 60"><defs><style>.cls-1{fill:#f8002f;}.cls-2{fill:#fff;}.cls-3{fill:#afafaf;}</style></defs><title>Artboard 7icons</title><rect class="cls-1" width="60" height="60"/><path class="cls-2" d="M35.22,26.17A6.19,6.19,0,0,1,36,27.58a3.08,3.08,0,0,1,4,.26,3,3,0,0,1,.48,3.69l1.17,1.17a4.66,4.66,0,0,0-.5-6,4.72,4.72,0,0,0-6-.53"/><path class="cls-2" d="M22.38,33.06A3.07,3.07,0,0,1,19.31,30V26.48a4.66,4.66,0,0,0,3.07,8.19,4.7,4.7,0,0,0,4.39-3l-1.34-1.33a3.07,3.07,0,0,1-3.06,2.77"/><path class="cls-2" d="M35.73,32.16a3,3,0,0,1-.9-2.16,4.69,4.69,0,0,0-9.08-1.62l1.34,1.33a3.07,3.07,0,0,1,6.13.29,4.63,4.63,0,0,0,1.37,3.3,4.71,4.71,0,0,0,6,.51l-1.17-1.16a3.09,3.09,0,0,1-3.71-.48"/><path class="cls-2" d="M30.14,9.32h-.07a20.68,20.68,0,1,0,.07,41.37h.07a20.68,20.68,0,1,0-.07-41.37m.07,40.59h-.07a19.9,19.9,0,1,1-.07-39.81h.07a19.9,19.9,0,1,1,.07,39.81"/><path class="cls-3" d="M79.17,25.33H77.63v-10H74V14h8.87v1.36H79.17Z"/><path class="cls-3" d="M86,23.11,92.16,14H94V25.33H92.48V16.18h0l-6.14,9.15H84.45V14H86v9.1Z"/><path class="cls-3" d="M105.46,14V25.33h-1.54V15.38H98.45v9.95H96.91V14Z"/><path class="cls-3" d="M119.71,19.65a6.3,6.3,0,0,1-.45,2.41A5.65,5.65,0,0,1,118,23.95a5.72,5.72,0,0,1-1.91,1.23,6.7,6.7,0,0,1-4.77,0,5.74,5.74,0,0,1-1.9-1.23,5.64,5.64,0,0,1-1.26-1.89,6.64,6.64,0,0,1,0-4.81,5.51,5.51,0,0,1,1.26-1.87,5.74,5.74,0,0,1,1.9-1.22,6.7,6.7,0,0,1,4.77,0A5.75,5.75,0,0,1,118,15.38a5.52,5.52,0,0,1,1.26,1.87A6.24,6.24,0,0,1,119.71,19.65Zm-1.66,0a5,5,0,0,0-.31-1.75,4.48,4.48,0,0,0-.87-1.45,4.14,4.14,0,0,0-1.37-1,4.6,4.6,0,0,0-3.6,0,4.13,4.13,0,0,0-1.37,1,4.48,4.48,0,0,0-.87,1.45,5,5,0,0,0-.31,1.75,5.07,5.07,0,0,0,.31,1.77,4.4,4.4,0,0,0,.87,1.46,4.06,4.06,0,0,0,1.37,1,4.68,4.68,0,0,0,3.6,0,4.06,4.06,0,0,0,1.37-1,4.41,4.41,0,0,0,.87-1.46A5.09,5.09,0,0,0,118.06,19.65Z"/><path class="cls-3" d="M123.52,25.33H122V14h6.62v1.38h-5.08Z"/><path class="cls-3" d="M130.4,14h3.46a6.75,6.75,0,0,1,1.62.18,3.62,3.62,0,0,1,1.27.57,2.6,2.6,0,0,1,.82,1,3.18,3.18,0,0,1,.29,1.41,3.07,3.07,0,0,1-.31,1.41,2.76,2.76,0,0,1-.85,1,3.77,3.77,0,0,1-1.29.58,6.46,6.46,0,0,1-1.62.19h-1.85v5H130.4V14Zm1.54,5.06h1.76a3.34,3.34,0,0,0,1.9-.47,1.61,1.61,0,0,0,.69-1.43,1.56,1.56,0,0,0-.69-1.43,3.52,3.52,0,0,0-1.87-.43h-1.77Z"/><path class="cls-3" d="M140.3,25.33h-1.7L143.49,14H145l4.86,11.33H148.1l-1.16-2.78h-5.5ZM142,21.2h4.47l-2.22-5.47Z"/><path class="cls-3" d="M157.66,14.4a7.09,7.09,0,0,1,2.16.51A5.61,5.61,0,0,1,161.54,16a4.94,4.94,0,0,1,1.12,1.61,5,5,0,0,1,.4,2,5.1,5.1,0,0,1-.4,2,4.88,4.88,0,0,1-1.12,1.61,5.56,5.56,0,0,1-1.71,1.11,7.09,7.09,0,0,1-2.16.51v1.28h-1.54V24.95a7.22,7.22,0,0,1-2.19-.51,5.58,5.58,0,0,1-1.73-1.11,5.06,5.06,0,0,1,0-7.32,5.72,5.72,0,0,1,1.73-1.1,7.21,7.21,0,0,1,2.19-.51V13.22h1.54Zm-5.34,5.26a3.93,3.93,0,0,0,.26,1.43,3.57,3.57,0,0,0,.74,1.17,3.91,3.91,0,0,0,1.19.85,4.91,4.91,0,0,0,1.61.43V15.8a5.07,5.07,0,0,0-1.61.43,3.71,3.71,0,0,0-1.19.85,3.67,3.67,0,0,0-.74,1.18A3.89,3.89,0,0,0,152.33,19.67Zm9.08,0a3.91,3.91,0,0,0-.25-1.42,3.61,3.61,0,0,0-.74-1.17,3.93,3.93,0,0,0-1.18-.85,4.8,4.8,0,0,0-1.58-.43v7.74a4.8,4.8,0,0,0,1.58-.43,3.91,3.91,0,0,0,1.18-.85,3.59,3.59,0,0,0,.74-1.17A3.91,3.91,0,0,0,161.41,19.67Z"/><path class="cls-3" d="M166.84,23.11,173,14h1.86V25.33h-1.54V16.18h0l-6.14,9.15h-1.87V14h1.54v9.1Z"/><path class="cls-3" d="M179.89,19.78a3.41,3.41,0,0,1-1.85-.85,2.39,2.39,0,0,1-.71-1.79,2.64,2.64,0,0,1,1.19-2.35,5.81,5.81,0,0,1,3.26-.79h3.56V25.33H183.8v-5h-1.22a4.32,4.32,0,0,0-1.55.27,3,3,0,0,0-1.21.86A4.59,4.59,0,0,0,179,23a9.91,9.91,0,0,0-.46,2.31h-1.7a8.75,8.75,0,0,1,.32-1.89,7.22,7.22,0,0,1,.66-1.6,5.53,5.53,0,0,1,.94-1.22,4.13,4.13,0,0,1,1.16-.8v0Zm3.91-4.4h-1.87a4.5,4.5,0,0,0-2.18.42,1.46,1.46,0,0,0-.74,1.37,1.51,1.51,0,0,0,.73,1.33,4,4,0,0,0,2.19.48h1.86v-3.6Z"/><path class="cls-2" d="M75.85,33.2l3.36,7,3.23-7h1.74l-4.23,8.86a9.39,9.39,0,0,1-.61,1.08,4.29,4.29,0,0,1-.72.85,3,3,0,0,1-.91.56,3.12,3.12,0,0,1-1.17.2,3.17,3.17,0,0,1-1.15-.17,3.53,3.53,0,0,1-.67-.34L75.54,43a2.5,2.5,0,0,0,.47.25,1.72,1.72,0,0,0,.71.13,1.25,1.25,0,0,0,.9-.38A4.27,4.27,0,0,0,78.37,42L74.11,33.2Z"/><path class="cls-2" d="M85.67,33.2h1.54V38H93V33.2h1.54V44.53H93v-5.2H87.21v5.2H85.67Z"/><path class="cls-2" d="M108.8,38.85a6.29,6.29,0,0,1-.45,2.41,5.61,5.61,0,0,1-1.25,1.89,5.68,5.68,0,0,1-1.91,1.23,6.71,6.71,0,0,1-4.77,0,5.69,5.69,0,0,1-1.9-1.23,5.61,5.61,0,0,1-1.26-1.89,6.66,6.66,0,0,1,0-4.81,5.51,5.51,0,0,1,1.26-1.87,5.75,5.75,0,0,1,1.9-1.23,6.72,6.72,0,0,1,4.77,0,5.75,5.75,0,0,1,1.91,1.23,5.5,5.5,0,0,1,1.25,1.87A6.23,6.23,0,0,1,108.8,38.85Zm-1.65,0a5,5,0,0,0-.3-1.75,4.41,4.41,0,0,0-.87-1.45,4.08,4.08,0,0,0-1.37-1,4.58,4.58,0,0,0-3.6,0,4.11,4.11,0,0,0-1.37,1,4.38,4.38,0,0,0-.87,1.45,5,5,0,0,0-.31,1.75,5.11,5.11,0,0,0,.31,1.78,4.4,4.4,0,0,0,.87,1.45,4,4,0,0,0,1.37,1,4.69,4.69,0,0,0,3.6,0,4.05,4.05,0,0,0,1.37-1,4.42,4.42,0,0,0,.87-1.45A5.13,5.13,0,0,0,107.14,38.85Z"/><path class="cls-2" d="M119.62,33.2V44.53h-1.54v-10h-5.47v10h-1.54V33.2Z"/><path class="cls-2" d="M122.48,33.2h3.46a6.67,6.67,0,0,1,1.62.18,3.65,3.65,0,0,1,1.27.57,2.59,2.59,0,0,1,.82,1,3.19,3.19,0,0,1,.29,1.41,3.06,3.06,0,0,1-.31,1.41,2.75,2.75,0,0,1-.85,1,3.81,3.81,0,0,1-1.29.58,6.48,6.48,0,0,1-1.62.19H124v5h-1.54V33.2ZM124,38.26h1.76a3.34,3.34,0,0,0,1.9-.47,1.61,1.61,0,0,0,.68-1.43,1.56,1.56,0,0,0-.69-1.43,3.51,3.51,0,0,0-1.87-.43H124v3.76Z"/><path class="cls-2" d="M133.59,43.17h5.9v1.36H132V33.2h7.22v1.36h-5.68V38h5.32v1.31h-5.32v3.86Z"/><path class="cls-2" d="M151.32,42.77a4.33,4.33,0,0,1-.74.8,5.16,5.16,0,0,1-1,.65,5.39,5.39,0,0,1-1.19.44,6,6,0,0,1-1.41.16,6.34,6.34,0,0,1-2.39-.44,5.56,5.56,0,0,1-3.14-3.12,6.23,6.23,0,0,1-.45-2.39,6.14,6.14,0,0,1,.46-2.4,5.66,5.66,0,0,1,3.16-3.11,6.37,6.37,0,0,1,2.38-.44,6.23,6.23,0,0,1,1.21.12,6.31,6.31,0,0,1,1.14.34,4.91,4.91,0,0,1,1,.55,3.41,3.41,0,0,1,.76.74l-1.19,1a3.2,3.2,0,0,0-1.13-1,3.6,3.6,0,0,0-1.75-.42,4.32,4.32,0,0,0-1.82.37,4.12,4.12,0,0,0-1.37,1,4.38,4.38,0,0,0-.87,1.45,5.05,5.05,0,0,0-.31,1.76,5,5,0,0,0,.31,1.77,4.4,4.4,0,0,0,.87,1.45,4,4,0,0,0,1.37,1,4.38,4.38,0,0,0,1.8.36,4.13,4.13,0,0,0,1.76-.38,3.27,3.27,0,0,0,1.34-1.16Z"/><path class="cls-2" d="M162.79,42.77a4.3,4.3,0,0,1-.74.8,5.06,5.06,0,0,1-1,.65,5.33,5.33,0,0,1-1.19.44,6,6,0,0,1-1.41.16,6.35,6.35,0,0,1-2.4-.44A5.56,5.56,0,0,1,153,41.26a6.24,6.24,0,0,1-.45-2.39,6.16,6.16,0,0,1,.46-2.4,5.66,5.66,0,0,1,3.16-3.11,6.38,6.38,0,0,1,2.38-.44,6.25,6.25,0,0,1,1.21.12,6.34,6.34,0,0,1,1.14.34,4.94,4.94,0,0,1,1,.55,3.39,3.39,0,0,1,.76.74l-1.19,1a3.19,3.19,0,0,0-1.13-1,3.58,3.58,0,0,0-1.74-.42,4.32,4.32,0,0,0-1.82.37,4.11,4.11,0,0,0-1.37,1,4.37,4.37,0,0,0-.87,1.45,5.23,5.23,0,0,0,0,3.53,4.4,4.4,0,0,0,.87,1.45,4,4,0,0,0,1.37,1,4.38,4.38,0,0,0,1.8.36,4.13,4.13,0,0,0,1.76-.38,3.26,3.26,0,0,0,1.34-1.16Z"/></svg>